<svg width="100" height="100" viewBox="0 0 100 100" fill="none" xmlns="http://www.w3.org/2000/svg">
<path d="M28.4891 15.8278L27.8766 14.4586L27.8766 14.4586L28.4891 15.8278ZM11.8066 21.0299L11.4869 19.5644C10.7979 19.7147 10.3066 20.3247 10.3066 21.0299H11.8066ZM42.8396 8.83196L43.5356 10.1607C43.6111 10.1212 43.6831 10.0753 43.7508 10.0235L42.8396 8.83196ZM49.8066 6.50652L49.8569 8.00568C50.6653 7.97857 51.3066 7.31538 51.3066 6.50652H49.8066ZM49.8066 6.5V5C48.9782 5 48.3066 5.67157 48.3066 6.5H49.8066ZM50.0005 6.50164L49.9752 8.00142C49.992 8.00171 50.0089 8.00171 50.0257 8.00142L50.0005 6.50164ZM50.1943 6.5H51.6943C51.6943 5.67157 51.0227 5 50.1943 5V6.5ZM50.1943 6.50652H48.6943C48.6943 7.31538 49.3356 7.97857 50.144 8.00568L50.1943 6.50652ZM57.1613 8.83196L56.2501 10.0235C56.3178 10.0753 56.3898 10.1212 56.4653 10.1607L57.1613 8.83196ZM88.1943 21.0299H89.6943C89.6943 20.3247 89.203 19.7147 88.514 19.5644L88.1943 21.0299ZM50.1943 93.3282L49.5766 91.9612C49.0395 92.204 48.6943 92.7387 48.6943 93.3282H50.1943ZM50.1943 93.5L49.5964 94.8757C50.0601 95.0772 50.594 95.0316 51.0168 94.7544C51.4396 94.4771 51.6943 94.0056 51.6943 93.5H50.1943ZM50.0005 93.4149L50.6083 92.0436C50.2212 91.872 49.7797 91.872 49.3926 92.0436L50.0005 93.4149ZM49.8066 93.5H48.3066C48.3066 94.0056 48.5613 94.4771 48.9841 94.7544C49.4069 95.0316 49.9409 95.0772 50.4045 94.8757L49.8066 93.5ZM49.8066 93.3282H51.3066C51.3066 92.7387 50.9614 92.204 50.4243 91.9612L49.8066 93.3282ZM27.8766 14.4586C22.5664 16.8342 14.7462 18.8532 11.4869 19.5644L12.1264 22.4954C15.4444 21.7715 23.5054 19.7006 29.1017 17.1971L27.8766 14.4586ZM42.1436 7.50321C39.6459 8.81153 33.2902 12.0367 27.8766 14.4586L29.1017 17.1971C34.5944 14.7398 41.0107 11.4833 43.5356 10.1607L42.1436 7.50321ZM49.7564 5.00736C46.1118 5.1296 43.1019 6.74309 41.9285 7.64042L43.7508 10.0235C44.5336 9.42487 46.9569 8.10294 49.8569 8.00568L49.7564 5.00736ZM51.3066 6.50652V6.5H48.3066V6.50652H51.3066ZM49.8066 8C49.8629 8 49.9191 8.00048 49.9752 8.00142L50.0257 5.00185C49.953 5.00062 49.8799 5 49.8066 5V8ZM50.1943 5C50.121 5 50.0479 5.00062 49.9752 5.00185L50.0257 8.00142C50.0818 8.00048 50.138 8 50.1943 8V5ZM51.6943 6.50652V6.5H48.6943V6.50652H51.6943ZM50.144 8.00568C53.044 8.10294 55.4673 9.42487 56.2501 10.0235L58.0725 7.64042C56.899 6.74309 53.8891 5.1296 50.2445 5.00736L50.144 8.00568ZM56.4653 10.1607C58.9903 11.4833 65.4065 14.7398 70.8992 17.1971L72.1243 14.4586C66.7107 12.0367 60.355 8.81153 57.8573 7.50321L56.4653 10.1607ZM70.8992 17.1971C76.4955 19.7006 84.5565 21.7715 87.8745 22.4954L88.514 19.5644C85.2547 18.8532 77.4345 16.8342 72.1243 14.4586L70.8992 17.1971ZM86.6943 21.0299C86.6943 64.589 61.9899 86.3523 49.5766 91.9612L50.8119 94.6951C64.2335 88.6306 89.6943 65.8386 89.6943 21.0299H86.6943ZM51.6943 93.5V93.3282H48.6943V93.5H51.6943ZM49.3926 94.7863C49.4608 94.8165 49.5287 94.8463 49.5964 94.8757L50.7922 92.1243C50.7313 92.0978 50.67 92.0709 50.6083 92.0436L49.3926 94.7863ZM49.3926 92.0436C49.3309 92.0709 49.2697 92.0978 49.2088 92.1243L50.4045 94.8757C50.4722 94.8463 50.5401 94.8165 50.6083 94.7863L49.3926 92.0436ZM51.3066 93.5V93.3282H48.3066V93.5H51.3066ZM10.3066 21.0299C10.3066 65.8386 35.7674 88.6306 49.189 94.6951L50.4243 91.9612C38.011 86.3523 13.3066 64.589 13.3066 21.0299H10.3066Z" fill="white"/>
<path d="M35.0966 58.4929L35.9617 59.7184L35.9617 59.7184L35.0966 58.4929ZM31.7161 65.4588L30.2165 65.4929C30.235 66.3078 30.901 66.9588 31.7161 66.9588V65.4588ZM39.1551 56.4345L39.7264 57.8215L39.7264 57.8215L39.1551 56.4345ZM44.6234 52.449L45.9417 53.1646C46.061 52.9449 46.1234 52.6989 46.1234 52.449H44.6234ZM44.6234 47.9416H46.1234C46.1234 47.472 45.9035 47.0296 45.5292 46.746L44.6234 47.9416ZM41.0381 42.1026L42.5351 42.009C42.5007 41.4587 42.1672 40.9717 41.6666 40.7406L41.0381 42.1026ZM39.399 39.8489L37.9247 40.1253L37.9247 40.1253L39.399 39.8489ZM40.6283 36.6733L41.5283 37.8733C42.0878 37.4537 42.283 36.7031 41.999 36.0641L40.6283 36.6733ZM51.4869 21L52.7927 20.2619C52.5266 19.7911 52.0277 19.5 51.4869 19.5V21ZM52.8186 23.3561L54.3154 23.4545C54.3345 23.163 54.2682 22.8723 54.1245 22.618L52.8186 23.3561ZM52.8163 23.3912L51.3195 23.2928C51.2668 24.0952 51.8561 24.7964 52.6556 24.8825L52.8163 23.3912ZM59.477 36.6731L58.1063 36.0639C57.8223 36.7029 58.0175 37.4535 58.577 37.8731L59.477 36.6731ZM60.7063 39.8487L59.232 39.5723L59.232 39.5723L60.7063 39.8487ZM59.0672 42.1024L58.4387 40.7405C57.9381 40.9715 57.6046 41.4585 57.5702 42.0088L59.0672 42.1024ZM55.4819 47.9415L54.5761 46.7458C54.2018 47.0294 53.9819 47.4719 53.9819 47.9415H55.4819ZM55.4819 52.4488H53.9819C53.9819 52.6988 54.0443 52.9448 54.1636 53.1644L55.4819 52.4488ZM60.9502 56.4344L60.3789 57.8213L60.3789 57.8213L60.9502 56.4344ZM65.0087 58.4927L64.1436 59.7182L64.1436 59.7182L65.0087 58.4927ZM68.3892 65.4586V66.9586C69.2043 66.9586 69.8703 66.3077 69.8888 65.4927L68.3892 65.4586ZM50.0528 65.4586V63.9586C49.2599 63.9586 48.604 64.5756 48.5556 65.367L50.0528 65.4586ZM50.0527 65.4588V66.9588C50.8456 66.9588 51.5015 66.3418 51.5499 65.5505L50.0527 65.4588ZM34.2316 57.2675C32.5333 58.4663 31.5245 60.1088 30.948 61.6133C30.3758 63.1067 30.1951 64.5507 30.2165 65.4929L33.2158 65.4247C33.203 64.8645 33.3194 63.8089 33.7494 62.6867C34.1751 61.5756 34.8736 60.4864 35.9617 59.7184L34.2316 57.2675ZM38.5837 55.0476C37.2607 55.5927 35.7045 56.2278 34.2316 57.2675L35.9617 59.7184C37.1184 58.9019 38.3671 58.3815 39.7264 57.8215L38.5837 55.0476ZM43.3052 51.7333C42.3835 53.4312 40.8626 54.1088 38.5837 55.0476L39.7264 57.8215C41.8708 56.938 44.4402 55.9305 45.9417 53.1646L43.3052 51.7333ZM43.1234 47.9416V52.449H46.1234V47.9416H43.1234ZM39.541 42.1961C39.6473 43.8976 40.4297 45.4144 41.2506 46.5594C42.0788 47.7146 43.042 48.6254 43.7177 49.1373L45.5292 46.746C45.078 46.4042 44.3305 45.7067 43.6887 44.8114C43.0396 43.9059 42.5927 42.93 42.5351 42.009L39.541 42.1961ZM37.9247 40.1253C38.2803 42.0221 39.6348 43.107 40.4095 43.4645L41.6666 40.7406C41.6708 40.7425 41.6217 40.7189 41.5391 40.6558C41.4607 40.596 41.369 40.5136 41.2786 40.4091C41.0993 40.2019 40.9396 39.9261 40.8733 39.5725L37.9247 40.1253ZM39.7283 35.4733C39.2045 35.8661 38.6197 36.4258 38.2362 37.2334C37.8421 38.063 37.7193 39.0298 37.9247 40.1253L40.8733 39.5725C40.7714 39.029 40.8535 38.7153 40.946 38.5205C41.049 38.3036 41.2326 38.0951 41.5283 37.8733L39.7283 35.4733ZM37.899 30.9366C37.899 33.5912 38.7954 36.2427 39.2576 37.2825L41.999 36.0641C41.6416 35.2599 40.899 33.0353 40.899 30.9366H37.899ZM51.4869 19.5C46.0818 19.5 42.6154 21.3958 40.5277 23.892C38.4916 26.3264 37.899 29.1734 37.899 30.9366H40.899C40.899 29.7291 41.3309 27.6078 42.8289 25.8166C44.2754 24.0872 46.8529 22.5 51.4869 22.5V19.5ZM54.1245 22.618L52.7927 20.2619L50.1811 21.7381L51.5128 24.0942L54.1245 22.618ZM54.3131 23.4895L54.3154 23.4545L51.3218 23.2578L51.3195 23.2928L54.3131 23.4895ZM52.6556 24.8825C56.0887 25.2526 57.5985 26.3426 58.3174 27.3389C59.0733 28.3865 59.2063 29.6598 59.2063 30.9365H62.2063C62.2063 29.5426 62.0909 27.4416 60.7502 25.5835C59.3724 23.674 56.9372 22.3267 52.9771 21.8998L52.6556 24.8825ZM59.2063 30.9365C59.2063 33.0351 58.4637 35.2598 58.1063 36.0639L60.8477 37.2823C61.3099 36.2425 62.2063 33.5911 62.2063 30.9365H59.2063ZM58.577 37.8731C58.8727 38.0949 59.0563 38.3034 59.1593 38.5203C59.2518 38.7151 59.3339 39.0288 59.232 39.5723L62.1806 40.1251C62.386 39.0296 62.2632 38.0628 61.8691 37.2332C61.4856 36.4257 60.9008 35.8659 60.377 35.4731L58.577 37.8731ZM59.232 39.5723C59.1657 39.9259 59.006 40.2017 58.8267 40.4089C58.7363 40.5134 58.6446 40.5959 58.5662 40.6556C58.4836 40.7187 58.4345 40.7424 58.4387 40.7405L59.6958 43.4643C60.4705 43.1068 61.825 42.0219 62.1806 40.1251L59.232 39.5723ZM57.5702 42.0088C57.5126 42.9298 57.0657 43.9057 56.4166 44.8112C55.7748 45.7065 55.0273 46.404 54.5761 46.7458L56.3876 49.1371C57.0633 48.6252 58.0265 47.7144 58.8547 46.5592C59.6756 45.4142 60.458 43.8975 60.5643 42.196L57.5702 42.0088ZM53.9819 47.9415V52.4488H56.9819V47.9415H53.9819ZM54.1636 53.1644C55.6651 55.9303 58.2345 56.9379 60.3789 57.8213L61.5216 55.0474C59.2427 54.1086 57.7218 53.431 56.8001 51.7332L54.1636 53.1644ZM60.3789 57.8213C61.7382 58.3813 62.9869 58.9017 64.1436 59.7182L65.8737 57.2673C64.4008 56.2276 62.8446 55.5925 61.5216 55.0474L60.3789 57.8213ZM64.1436 59.7182C65.2317 60.4862 65.9302 61.5754 66.3559 62.6865C66.7859 63.8087 66.9023 64.8643 66.8895 65.4246L69.8888 65.4927C69.9102 64.5505 69.7295 63.1066 69.1573 61.6131C68.5808 60.1086 67.572 58.4661 65.8737 57.2673L64.1436 59.7182ZM68.3892 63.9586H50.0528V66.9586H68.3892V63.9586ZM51.5499 65.5505L51.55 65.5503L48.5556 65.367L48.5555 65.3672L51.5499 65.5505ZM31.7161 66.9588H50.0527V63.9588H31.7161V66.9588Z" fill="white"/>
</svg>
