<svg width="100" height="100" viewBox="0 0 100 100" fill="none" xmlns="http://www.w3.org/2000/svg">
<path fill-rule="evenodd" clip-rule="evenodd" d="M56.6165 13.1294C57.8561 13.056 59.7395 13.354 61.2684 14.437C62.7133 15.4606 64 17.292 64 20.6661V31.2466H45.0833C40.9411 31.2466 37.5833 34.6044 37.5833 38.7466V54.7709L35.3933 54.7709L20.5556 67.3765V54.6122L18.9053 54.7784C17.4092 54.929 15.1524 54.6458 13.3159 53.3662C11.5672 52.1478 10 49.8899 10 45.6426V20.6661C10 19.3984 10.39 17.4651 11.5146 15.8923C12.5841 14.3966 14.3766 13.1321 17.4722 13.1321H56.5722L56.6165 13.1294ZM37.5833 57.7709H36.4956L17.5556 73.8616V57.7994C15.7264 57.7064 13.533 57.1739 11.6008 55.8276C8.95127 53.9815 7 50.7482 7 45.6426V20.6661C7 18.9225 7.50725 16.3388 9.0743 14.1473C10.6964 11.8789 13.3901 10.1321 17.4722 10.1321H56.4855C58.236 10.038 60.8124 10.4376 63.0025 11.989C65.296 13.6137 67 16.3878 67 20.6661V31.2466H85.5C89.6421 31.2466 93 34.6045 93 38.7466V67.5151C93 71.6573 89.6421 75.0151 85.5 75.0151H83.2929V89.8805L65.95 75.0151H45.0833C40.9411 75.0151 37.5833 71.6573 37.5833 67.5151V57.7709ZM64.8621 34.2466C65.0557 34.3377 65.2719 34.3886 65.5 34.3886C65.7281 34.3886 65.9443 34.3377 66.1379 34.2466H85.5C87.9853 34.2466 90 36.2613 90 38.7466V67.5151C90 70.0004 87.9853 72.0151 85.5 72.0151H80.2929V83.3579L67.0597 72.0151H45.0833C42.598 72.0151 40.5833 70.0004 40.5833 67.5151V38.7466C40.5833 36.2613 42.598 34.2466 45.0833 34.2466H64.8621Z" fill="white"/>
</svg>
