<svg width="100" height="100" viewBox="0 0 100 100" fill="none" xmlns="http://www.w3.org/2000/svg">
<path fill-rule="evenodd" clip-rule="evenodd" d="M21 22.8275C21 22.4733 21.282 21.7709 22.7097 20.8503C24.0702 19.973 26.1384 19.1263 28.8279 18.3928C34.1856 16.9316 41.6716 16.0093 50 16.0093C58.3284 16.0093 65.8144 16.9316 71.1721 18.3928C73.8616 19.1263 75.9298 19.973 77.2903 20.8503C78.718 21.7709 79 22.4733 79 22.8275C79 22.8275 79 22.8276 79 22.8276C78.9999 23.1818 78.7177 23.8842 77.2903 24.8046C75.9298 25.6819 73.8616 26.5286 71.1721 27.2622C65.8144 28.7233 58.3284 29.6456 50 29.6456C41.6716 29.6456 34.1856 28.7233 28.8279 27.2622C26.1384 26.5286 24.0702 25.6819 22.7097 24.8046C21.2823 23.8842 21.0001 23.1818 21 22.8276C21 22.8276 21 22.8275 21 22.8275ZM18 22.8276C18 22.8276 18 22.8275 18 22.8275C18 20.8846 19.4249 19.3988 21.084 18.329C22.8102 17.2159 25.2087 16.2702 28.0386 15.4985C33.7198 13.9491 41.4837 13.0093 50 13.0093C58.5163 13.0093 66.2802 13.9491 71.9614 15.4985C74.7913 16.2702 77.1898 17.2159 78.916 18.329C80.5751 19.3988 82 20.8846 82 22.8275C82 22.8275 82 22.8276 82 22.8276V41.3457V60.0913V77.3613C82 79.2947 80.5528 80.7551 78.9029 81.7949C77.1778 82.8821 74.7812 83.8056 71.9531 84.5595C66.275 86.073 58.514 86.9913 50 86.9913C41.486 86.9913 33.725 86.073 28.0469 84.5595C25.2188 83.8056 22.8222 82.8821 21.0971 81.7949C19.4472 80.7551 18 79.2947 18 77.3613V60.0913V41.3457V22.8276ZM21 45.5776V60.0913C21 60.3188 21.2132 60.9511 22.6703 61.8281C24.0345 62.6491 26.1084 63.4414 28.8033 64.1274C34.1702 65.4935 41.665 66.3549 50 66.3549C58.335 66.3549 65.8298 65.4935 71.1967 64.1274C73.8916 63.4414 75.9655 62.6491 77.3297 61.8281C78.7868 60.9511 79 60.3188 79 60.0913V45.5776C78.959 45.603 78.9178 45.6281 78.8766 45.6529C77.1541 46.6895 74.7613 47.5701 71.9368 48.2891C66.2648 49.7328 58.5097 50.6093 50 50.6093C41.4903 50.6093 33.7352 49.7328 28.0632 48.2891C25.2387 47.5701 22.8459 46.6895 21.1234 45.6529C21.0822 45.6281 21.041 45.603 21 45.5776ZM79 41.3457C79 41.5732 78.7868 42.2055 77.3297 43.0825C75.9655 43.9035 73.8916 44.6958 71.1967 45.3818C65.8298 46.7479 58.335 47.6093 50 47.6093C41.665 47.6093 34.1702 46.7479 28.8033 45.3818C26.1084 44.6958 24.0345 43.9035 22.6703 43.0825C21.2132 42.2055 21 41.5732 21 41.3457V27.2713C21.0279 27.2896 21.0559 27.3078 21.084 27.3259C22.8102 28.439 25.2087 29.3847 28.0386 30.1564C33.7198 31.7059 41.4837 32.6456 50 32.6456C58.5163 32.6456 66.2802 31.7059 71.9614 30.1564C74.7913 29.3847 77.1898 28.439 78.916 27.3259C78.9441 27.3078 78.9721 27.2896 79 27.2713V41.3457ZM79 64.3232C78.959 64.3486 78.9178 64.3737 78.8766 64.3985C77.1541 65.4351 74.7613 66.3157 71.9368 67.0347C66.2648 68.4784 58.5097 69.3549 50 69.3549C41.4903 69.3549 33.7352 68.4784 28.0632 67.0347C25.2387 66.3157 22.8459 65.4351 21.1234 64.3985C21.0822 64.3737 21.041 64.3486 21 64.3232V77.3613C21 77.673 21.2597 78.3513 22.6966 79.2569C24.0582 80.115 26.1282 80.9433 28.8196 81.6607C34.1803 83.0896 41.6693 83.9913 50 83.9913C58.3307 83.9913 65.8197 83.0896 71.1804 81.6607C73.8718 80.9433 75.9418 80.115 77.3034 79.2569C78.7403 78.3513 79 77.673 79 77.3613V64.3232Z" fill="white"/>
</svg>
